<svg width="1792" height="1792" viewBox="0 0 1792 1792" fill="none" xmlns="http://www.w3.org/2000/svg">
<path d="M896 786H1621C1629 830.667 1633 873.333 1633 914C1633 1058.67 1602.67 1187.83 1542 1301.5C1481.33 1415.17 1394.83 1504 1282.5 1568C1170.17 1632 1041.33 1664 896 1664C791.333 1664 691.667 1643.83 597 1603.5C502.333 1563.17 420.667 1508.67 352 1440C283.333 1371.33 228.833 1289.67 188.5 1195C148.167 1100.33 128 1000.67 128 896C128 791.333 148.167 691.667 188.5 597C228.833 502.333 283.333 420.667 352 352C420.667 283.333 502.333 228.833 597 188.5C691.667 148.167 791.333 128 896 128C1096 128 1267.67 195 1411 329L1202 530C1120 450.667 1018 411 896 411C810 411 730.5 432.667 657.5 476C584.5 519.333 526.667 578.167 484 652.5C441.333 726.833 420 808 420 896C420 984 441.333 1065.17 484 1139.5C526.667 1213.83 584.5 1272.67 657.5 1316C730.5 1359.33 810 1381 896 1381C954 1381 1007.33 1373 1056 1357C1104.67 1341 1144.67 1321 1176 1297C1207.33 1273 1234.67 1245.67 1258 1215C1281.33 1184.33 1298.5 1155.33 1309.5 1128C1320.5 1100.67 1328 1074.67 1332 1050H896V786Z" fill="white"/>
</svg>
