<svg width="1003" height="675" viewBox="0 0 1003 675" fill="none" xmlns="http://www.w3.org/2000/svg">
<mask id="mask0_83_341" style="mask-type:luminance" maskUnits="userSpaceOnUse" x="0" y="0" width="1003" height="675">
<path d="M0 0H1002.67V674.599H0V0Z" fill="white"/>
</mask>
<g mask="url(#mask0_83_341)">
<path d="M730.442 111.792C733.072 111.547 734.473 108.584 733.015 106.391C732.291 105.323 731.082 104.745 729.796 104.86C725.171 105.292 720.546 105.729 715.921 106.162C713.223 106.433 711.843 109.516 713.457 111.709C714.192 112.693 715.353 113.203 716.577 113.099C721.202 112.662 725.822 112.224 730.442 111.792ZM932.051 145.417C931.072 146.094 929.728 145.849 929.051 144.87C928.369 143.886 928.619 142.542 929.598 141.865L936.463 137.136C937.442 136.459 938.786 136.703 939.468 137.683C940.145 138.667 939.895 140.011 938.916 140.688L932.051 145.417ZM761.687 129.271L788.218 64.1096L765.009 3.25023L765.015 3.24502C764.827 2.76065 764.817 2.20336 765.03 1.68252C765.473 0.573148 766.728 0.0366894 767.832 0.479397L1000.39 94.5575C1001.03 94.6044 1001.63 94.9273 1002.01 95.4898C1002.69 96.4742 1002.43 97.8179 1001.45 98.4898L948.306 134.75C947.322 135.417 945.983 135.167 945.312 134.183C944.64 133.198 944.89 131.86 945.874 131.188L993.239 98.87L815.317 98.9534L825.931 120.662L825.937 120.667L859.478 189.25L922.468 146.584C923.457 145.912 924.801 146.172 925.468 147.156C926.14 148.146 925.884 149.49 924.895 150.162L859.843 194.224V194.219C859.759 194.276 859.671 194.323 859.577 194.37C858.509 194.896 857.218 194.448 856.692 193.38L822.744 123.959L764.103 132.261C763.275 132.433 762.39 132.11 761.884 131.375C761.442 130.729 761.39 129.933 761.687 129.271ZM791.947 61.7659L981.702 91.6513L770.812 6.33877L791.947 61.7659ZM792.051 66.1461L768.39 124.25L810.634 95.0211L810.65 95.0107H810.655L810.666 95.0002C811.062 94.7398 811.504 94.6252 811.942 94.6409L972.494 94.5627L978.145 94.5992L934.681 88.6096L792.051 66.1461ZM772.379 126.735L773.187 126.62C773.134 126.505 773.082 126.391 773.036 126.281L772.379 126.735ZM776.374 126.172L779.327 125.75C778.713 124.281 778.796 124.49 778.296 122.641L775.088 124.865C775.306 125.11 775.624 125.427 776.145 125.854C776.233 125.953 776.312 126.058 776.374 126.172ZM782.197 125.344L786.869 124.683C784.978 121.672 785.483 122.709 784.223 118.542L779.145 122.058C781.025 123.563 780.499 123.042 782.197 125.344ZM790.02 124.24L794.134 123.656C791.864 120.266 790.947 118.328 789.723 114.74L784.681 118.229C787.848 121.755 786.473 120.209 790.02 124.24ZM797.447 123.188L800.989 122.688C796.911 115.313 798.254 118.313 795.546 110.709L790.666 114.084C793.036 117.078 794.431 119.714 797.447 123.188ZM804.213 122.229L808.296 121.651C806.062 117.261 802.161 109.865 801.223 106.781L795.978 110.412L804.108 122.094C804.145 122.136 804.181 122.183 804.213 122.229ZM811.39 121.214L815.041 120.698C808.093 108.839 810.187 113.151 805.983 103.49L801.541 106.558C805.129 110.005 808.723 116.646 811.384 121.214H811.39ZM818.239 120.245L820.754 119.891L811.025 100L806.478 103.146C812.676 112.073 809.504 107.479 818.233 120.24L818.244 120.245H818.239ZM6.97299 527.209C6.84278 524.422 3.67091 522.912 1.42091 524.563C0.483409 525.261 -0.0322172 526.349 0.0146588 527.516C0.181325 531.25 0.347992 534.99 0.530284 538.724C0.676116 541.532 3.89487 543.016 6.12924 541.313C7.0407 540.61 7.5407 539.532 7.48862 538.38C7.30633 534.657 7.13966 530.933 6.97299 527.209ZM8.81674 559.104C8.56674 556.308 5.30633 554.933 3.12924 556.719C2.24383 557.453 1.78549 558.552 1.87924 559.698C2.26987 564.37 2.75945 569.063 3.37403 573.714C3.75424 576.474 7.04591 577.703 9.13966 575.854C10.0094 575.078 10.4313 573.948 10.2803 572.792C9.67091 568.255 9.19695 563.662 8.81674 559.104ZM13.9782 592.953C13.3428 590.427 10.2907 589.464 8.31674 591.162C7.32716 592.032 6.90529 593.349 7.21778 594.63C8.35841 599.261 9.71778 603.834 11.348 608.318C12.2751 610.844 15.5928 611.412 17.3063 609.334C18.0928 608.365 18.3115 607.099 17.8897 605.927C16.3428 601.677 15.0615 597.344 13.9782 592.953ZM26.6605 624.011C25.2074 621.761 21.8897 621.896 20.6345 624.266C20.0615 625.386 20.1136 626.693 20.7855 627.755C20.9886 628.078 21.1917 628.391 21.4001 628.709L21.9001 629.469L22.4053 630.219L22.6657 630.594L22.9209 630.969L23.1813 631.339L23.9782 632.448L24.249 632.818L24.5199 633.183L25.072 633.912L25.3532 634.271L25.6345 634.636L25.9157 634.995L26.2022 635.354L26.4886 635.709L26.7803 636.068L27.3636 636.776L27.6605 637.13L27.9574 637.479L28.5615 638.177L28.8688 638.526L29.1761 638.87L29.572 639.308C31.3011 641.188 34.3636 640.651 35.3584 638.297C35.874 637.037 35.6292 635.62 34.7126 634.61L34.3688 634.229L33.8063 633.594L33.2542 632.953L32.7074 632.313L32.1709 631.662C31.8167 631.224 31.4678 630.787 31.124 630.349C30.8636 630.016 30.6084 629.683 30.3584 629.349C29.1813 627.782 28.072 626.198 27.0095 624.552L26.6605 624.011ZM49.8897 647.709C47.8428 646.318 45.0667 647.417 44.5199 649.828C44.2178 651.229 44.7699 652.641 45.9574 653.453C47.4522 654.485 48.9782 655.464 50.5251 656.417L51.3636 656.927C53.6397 658.292 55.9522 659.589 58.3167 660.792C60.8063 662.047 63.6761 660.032 63.348 657.255C63.197 656.099 62.5095 655.11 61.4678 654.584C57.4886 652.542 53.572 650.24 49.8897 647.703V647.709ZM80.249 662.24C77.8584 661.505 75.5042 663.427 75.7542 665.922C75.9105 667.323 76.8376 668.464 78.1813 668.886C82.7334 670.313 87.3897 671.479 92.072 672.375C93.8272 672.703 95.5303 671.672 96.0511 669.969C96.6501 667.974 95.4053 665.922 93.3636 665.532C88.947 664.688 84.5459 663.578 80.249 662.235V662.24ZM113.489 667.521C112.291 667.521 111.202 668.12 110.551 669.12C109.072 671.448 110.723 674.469 113.478 674.485C113.822 674.485 114.166 674.485 114.515 674.485L115.483 674.469C116.129 674.459 116.775 674.438 117.421 674.417L118.384 674.38L119.348 674.328L120.312 674.271L121.27 674.203L121.749 674.167L122.223 674.13L122.702 674.089L123.65 673.995L124.129 673.948L124.603 673.896L125.072 673.839L126.02 673.724L126.957 673.599L127.879 673.469C130.332 673.089 131.614 670.391 130.364 668.245C129.629 667.026 128.259 666.37 126.853 666.578L126.437 666.641L126.004 666.703C125.426 666.782 124.848 666.854 124.265 666.922L123.827 666.974L122.952 667.068C122.509 667.11 122.072 667.151 121.629 667.188L120.744 667.261C118.327 667.438 115.91 667.532 113.489 667.521ZM145.848 661.011C143.598 662.089 143.171 665.058 145.009 666.74C146.067 667.683 147.551 667.912 148.832 667.302L149.494 666.985L150.306 666.589L151.108 666.183L151.509 665.974L151.905 665.766L152.697 665.339L153.478 664.901L153.869 664.677L154.254 664.453L154.645 664.229L155.025 664L155.41 663.766L156.171 663.297L156.551 663.058L157.301 662.578L157.676 662.334L158.046 662.084L158.416 661.839L158.785 661.584L159.15 661.334L159.515 661.073L159.879 660.818L160.244 660.558L160.603 660.297L160.963 660.032L161.348 659.745C163.348 658.219 163.134 655.172 160.942 653.927C159.723 653.255 158.259 653.354 157.14 654.193C156.926 654.354 156.707 654.516 156.489 654.677L155.838 655.146L155.176 655.615L154.509 656.073L154.176 656.297L153.838 656.521L153.16 656.964L152.822 657.183L152.134 657.61L151.447 658.026L151.098 658.235L150.4 658.641L150.051 658.839L149.697 659.042L148.634 659.62L147.916 659.995L147.197 660.36L146.832 660.542L146.468 660.719L145.848 661.011ZM148.832 667.302L161.348 659.74L157.14 654.193L148.832 667.302ZM171.463 640.224C170.176 641.823 170.525 644.162 172.223 645.308C173.728 646.313 175.733 646.011 176.874 644.61C179.884 640.907 182.661 636.964 185.192 632.917C186.556 630.714 185.14 627.854 182.556 627.604C181.228 627.495 179.989 628.104 179.28 629.229C176.9 633.032 174.291 636.745 171.463 640.224ZM188.832 611.203C188.202 612.604 188.567 614.24 189.723 615.25C191.499 616.782 194.223 616.183 195.187 614.047C197.124 609.735 198.895 605.354 200.52 600.917C201.265 598.854 199.968 596.641 197.806 596.282C196.15 596.021 194.556 596.953 193.978 598.526C192.306 602.828 190.728 606.979 188.832 611.203ZM200.218 578.901C199.838 580.302 200.358 581.771 201.53 582.63C203.509 584.063 206.291 583.089 206.937 580.735C208.176 576.198 209.312 571.63 210.322 567.042C210.838 564.625 208.786 562.464 206.343 562.86C204.926 563.104 203.832 564.146 203.515 565.552C202.525 570.032 201.426 574.474 200.218 578.901ZM207.155 545.25C206.775 548.016 209.619 550.078 212.134 548.865C213.181 548.344 213.89 547.37 214.051 546.214C214.702 541.568 215.249 536.922 215.723 532.255C215.999 529.479 213.082 527.526 210.619 528.834C209.588 529.391 208.921 530.391 208.796 531.552C208.327 536.13 207.791 540.693 207.155 545.25ZM210.572 510.823C210.374 513.474 213.093 515.36 215.504 514.245C216.661 513.703 217.416 512.615 217.515 511.349C217.858 506.714 218.197 502.084 218.541 497.453C218.666 495.735 217.53 494.188 215.853 493.802C213.759 493.328 211.765 494.802 211.598 496.938C211.249 501.563 210.916 506.193 210.572 510.823ZM213.233 476.073C213.02 478.589 215.457 480.464 217.843 479.657C219.155 479.193 220.051 478.042 220.176 476.657L220.197 476.396L213.254 475.808L213.233 476.073ZM220.197 476.396C220.582 471.87 220.983 467.344 221.416 462.823C221.551 461.37 220.78 460 219.473 459.36C217.275 458.308 214.723 459.735 214.483 462.162C214.046 466.703 213.645 471.255 213.254 475.808L220.197 476.396ZM216.676 441.313C216.369 444.089 219.244 446.073 221.733 444.808C222.775 444.261 223.452 443.276 223.593 442.115C224.124 437.521 224.692 432.927 225.291 428.344C225.603 425.87 223.343 423.891 220.937 424.526C219.562 424.901 218.577 426.026 218.384 427.433C217.78 432.058 217.207 436.683 216.676 441.313ZM221.405 406.662C220.973 409.354 223.671 411.474 226.192 410.422C227.306 409.948 228.082 408.959 228.28 407.761C229.009 403.203 229.786 398.646 230.614 394.11C231.004 391.959 229.364 389.995 227.181 389.995C225.499 390.005 224.072 391.198 223.765 392.854C222.926 397.443 222.14 402.047 221.405 406.662ZM227.942 372.24C227.411 374.657 229.452 376.823 231.895 376.443C233.312 376.203 234.416 375.167 234.739 373.766C235.739 369.276 236.822 364.797 237.978 360.339C238.286 359.151 237.952 357.917 237.103 357.037C235.192 355.099 231.931 355.959 231.233 358.589C230.062 363.12 228.963 367.672 227.942 372.24ZM237.145 338.318C236.317 340.87 238.525 343.344 241.155 342.818C242.39 342.558 243.358 341.693 243.759 340.495C245.192 336.141 246.723 331.834 248.39 327.563C249.405 324.922 247.056 322.245 244.301 322.917C243.202 323.198 242.322 323.969 241.905 325.026C240.192 329.417 238.614 333.844 237.145 338.318ZM250.65 305.651C249.744 307.401 250.452 309.537 252.228 310.396C253.926 311.214 255.957 310.537 256.827 308.87C258.931 304.828 261.176 300.88 263.593 297.016C264.895 294.906 263.687 292.172 261.244 291.735C259.838 291.495 258.452 292.104 257.692 293.313C255.176 297.334 252.843 301.438 250.655 305.646L250.65 305.651ZM270.239 276.016C268.494 278.104 269.671 281.266 272.358 281.703C273.567 281.891 274.765 281.448 275.556 280.511C278.468 277.052 281.546 273.724 284.801 270.594C286.593 268.87 286.067 265.896 283.791 264.891C282.483 264.328 281.015 264.584 279.983 265.568C276.546 268.875 273.312 272.37 270.239 276.016ZM296.681 252.047C295.192 253.052 294.697 254.979 295.53 256.573C296.499 258.401 298.817 258.99 300.541 257.849C304.286 255.344 308.15 253.073 312.187 251.063C314.405 249.943 314.796 246.964 312.926 245.318C311.853 244.396 310.364 244.193 309.093 244.823C304.791 246.964 300.676 249.38 296.681 252.047ZM329.265 237.188C326.681 237.875 325.796 241.063 327.645 242.985C328.536 243.886 329.796 244.245 331.025 243.927C335.374 242.781 339.765 241.922 344.228 241.375C346.853 241.047 348.171 238.073 346.655 235.906C345.9 234.854 344.681 234.313 343.395 234.464C338.619 235.047 333.916 235.964 329.265 237.193V237.188ZM364.942 233.979C362.155 233.771 360.275 236.719 361.634 239.162C362.218 240.183 363.223 240.823 364.395 240.922C368.884 241.266 373.332 241.896 377.744 242.808C380.181 243.302 382.327 241.193 381.874 238.745C381.598 237.349 380.551 236.281 379.16 235.99C374.457 235.021 369.723 234.344 364.942 233.979ZM399.728 242.271C398.009 241.573 396.051 242.323 395.254 244.005C394.405 245.813 395.233 247.953 397.082 248.714C401.27 250.427 405.306 252.37 409.27 254.558C411.478 255.766 414.171 254.349 414.426 251.839C414.546 250.453 413.864 249.141 412.645 248.464C408.447 246.146 404.166 244.089 399.728 242.271ZM430.457 260.469C428.52 258.906 425.64 259.797 424.926 262.183C424.53 263.542 424.968 264.974 426.067 265.875C429.588 268.724 432.942 271.735 436.14 274.943C437.905 276.698 440.853 276.125 441.827 273.828C442.358 272.516 442.077 271.042 441.077 270.031C437.702 266.651 434.171 263.474 430.457 260.469ZM454.968 286.339C453.504 284.328 450.494 284.438 449.176 286.552C448.447 287.766 448.494 289.261 449.322 290.417C451.983 294.084 454.431 297.87 456.687 301.797C458.046 304.146 461.431 304.125 462.754 301.75C463.343 300.667 463.343 299.406 462.728 298.334C460.353 294.198 457.77 290.203 454.968 286.339ZM471.791 317.802C470.884 315.318 467.692 314.703 465.916 316.667C465.062 317.636 464.806 318.948 465.244 320.167C466.77 324.375 468.041 328.714 469.004 333.089C469.572 335.688 472.707 336.714 474.713 334.964C475.66 334.115 476.077 332.86 475.812 331.61C474.785 326.943 473.426 322.297 471.791 317.802ZM478.098 353.125C478.129 350.401 475.181 348.703 472.832 350.089C471.791 350.719 471.155 351.818 471.134 353.037C471.088 357.386 470.739 362.089 469.983 366.37C469.713 368.037 470.645 369.636 472.223 370.219C474.275 370.959 476.489 369.667 476.853 367.516C477.64 362.782 478.051 357.927 478.098 353.125ZM471.093 388.328C472.056 385.886 470.098 383.318 467.489 383.584C466.197 383.724 465.103 384.552 464.624 385.761C462.978 389.927 461.03 393.953 458.812 397.844L464.843 401.328C467.228 397.177 469.338 392.787 471.098 388.328H471.093ZM458.812 397.844L464.838 401.328C463.989 402.802 462.192 403.448 460.598 402.849C458.577 402.084 457.739 399.719 458.812 397.844ZM451.973 418.761C453.733 416.907 452.968 413.86 450.541 413.052C449.244 412.636 447.874 412.979 446.926 413.959C443.895 417.162 440.572 420.141 436.983 422.709C435.483 423.787 435.077 425.808 436.041 427.38C437.103 429.089 439.384 429.547 441.025 428.38C444.978 425.552 448.629 422.292 451.973 418.761ZM421.259 437.985C422.973 437.49 424.035 435.813 423.739 434.052C423.384 432.005 421.353 430.724 419.353 431.287C415.114 432.5 410.812 433.193 406.41 433.443C403.733 433.594 402.228 436.542 403.671 438.808C404.358 439.86 405.525 440.464 406.78 440.396C411.702 440.12 416.515 439.344 421.259 437.985ZM384.994 438.042C386.395 438.417 387.864 437.901 388.723 436.729C390.155 434.75 389.181 431.969 386.827 431.323C382.582 430.172 378.431 428.578 374.509 426.589C372.817 425.74 370.775 426.37 369.869 428.032C368.937 429.755 369.603 431.907 371.348 432.797C375.692 435 380.296 436.771 384.994 438.042ZM353.577 419.969C354.744 421.141 356.546 421.339 357.937 420.448C359.801 419.235 360.082 416.662 358.525 415.068C355.437 411.964 352.733 408.547 350.478 404.792C349.114 402.537 345.869 402.532 344.504 404.787C343.843 405.901 343.832 407.25 344.499 408.365C347.046 412.599 350.093 416.469 353.577 419.969ZM336.629 387.849C336.926 389.308 338.103 390.412 339.577 390.615C341.957 390.917 343.926 388.834 343.457 386.479C342.567 382.089 342.114 377.719 341.978 373.24C341.91 370.979 339.765 369.391 337.577 369.979C336.025 370.407 334.973 371.823 335.015 373.433C335.161 378.302 335.661 383.073 336.629 387.849ZM336.541 351.974C336.114 354.672 338.812 356.792 341.332 355.735C342.447 355.261 343.223 354.276 343.421 353.078C344.129 348.589 345.067 344.141 346.166 339.735C346.838 337.005 344.197 334.651 341.562 335.625C340.483 336.037 339.692 336.927 339.411 338.042C338.265 342.641 337.286 347.292 336.541 351.974ZM345.603 317.735C344.733 320.193 346.744 322.683 349.327 322.365C350.634 322.188 351.713 321.323 352.16 320.084C353.697 315.771 355.348 311.485 357.114 307.261C358.134 304.781 356.134 302.146 353.468 302.464C352.218 302.625 351.181 303.417 350.687 304.573C348.879 308.912 347.181 313.308 345.603 317.735ZM359.494 285.36C358.775 286.797 359.124 288.531 360.343 289.578C362.077 291.037 364.687 290.516 365.718 288.495C367.775 284.386 369.916 280.323 372.15 276.313C373.452 273.964 371.754 271.115 369.072 271.13C367.817 271.151 366.692 271.813 366.072 272.912C363.785 277.016 361.598 281.167 359.494 285.36ZM376.937 254.808C375.52 256.995 376.921 259.886 379.504 260.162C380.817 260.287 382.062 259.693 382.78 258.589C385.27 254.729 387.838 250.917 390.494 247.177C392.103 244.896 390.53 241.755 387.744 241.677C386.567 241.656 385.504 242.183 384.817 243.141C382.103 246.969 379.478 250.865 376.931 254.808H376.937ZM397.582 226.318C395.869 228.427 397.129 231.604 399.827 231.969C401.035 232.125 402.213 231.656 402.983 230.714C403.369 230.245 403.754 229.771 404.14 229.302L404.681 228.646L405.775 227.334L406.327 226.683L406.879 226.026L407.989 224.724L408.546 224.073L409.108 223.422L409.676 222.776L410.239 222.125L410.812 221.479L411.379 220.839L411.916 220.235C413.77 218.151 412.556 214.854 409.791 214.464C408.629 214.313 407.509 214.724 406.723 215.594L406.171 216.214L405.588 216.87L405.004 217.531L404.426 218.198L403.848 218.86L402.702 220.193L401.562 221.526L400.999 222.193L399.874 223.531L399.317 224.203L398.759 224.88L398.207 225.552L397.582 226.318ZM421.374 200.344C419.582 202.099 420.134 205.104 422.463 206.068C423.749 206.594 425.207 206.323 426.207 205.354L427.067 204.526L427.702 203.917L429.624 202.104L430.916 200.906L431.567 200.308L432.218 199.714L433.53 198.526L435.515 196.761L436.327 196.052C438.437 194.209 437.634 190.781 434.926 190.052C433.801 189.766 432.645 190.031 431.759 190.792L430.916 191.537L430.233 192.136L428.879 193.344L428.202 193.953L427.535 194.563L426.864 195.172L426.197 195.787L425.535 196.401L424.869 197.016L422.9 198.875L422.249 199.5L421.374 200.344ZM448.259 177.526C446.317 178.964 446.379 181.86 448.374 183.219C449.614 184.037 451.187 184.011 452.384 183.136L452.89 182.761L453.619 182.229L454.343 181.698L455.077 181.172L455.806 180.651L456.541 180.125L457.28 179.604L458.02 179.089L458.765 178.573L460.254 177.552L461.004 177.042L461.759 176.537L462.509 176.037L463.65 175.287C465.983 173.755 465.671 170.261 463.103 169.162C462.025 168.714 460.827 168.818 459.848 169.453L458.666 170.235L457.884 170.75L455.572 172.313L454.806 172.844L454.041 173.37L453.28 173.906L452.52 174.438L451.765 174.974L451.009 175.516L450.259 176.058L449.509 176.604L448.765 177.146L448.259 177.521V177.526ZM478.077 158.636C476.525 159.464 475.832 161.313 476.463 162.959C477.228 164.922 479.483 165.761 481.348 164.787L482.155 164.354L482.973 163.922L483.791 163.495L484.614 163.068L485.437 162.646L486.265 162.224L487.921 161.391L488.754 160.974L489.593 160.563L491.27 159.75L492.957 158.948L493.64 158.625C495.572 157.714 496.239 155.339 495.067 153.552C494.108 152.11 492.254 151.589 490.687 152.318L489.983 152.651L489.114 153.063L488.249 153.474L487.39 153.891L485.671 154.735L484.817 155.156L483.963 155.589L483.108 156.016L482.259 156.448L481.416 156.886L480.567 157.323L479.728 157.766L478.884 158.209L478.077 158.641V158.636ZM510.134 144.037C508.989 144.479 508.166 145.479 507.952 146.693C507.499 149.365 510.103 151.5 512.634 150.537L513.9 150.052L514.796 149.714L516.598 149.037L518.41 148.37L521.145 147.386L522.062 147.063L523.895 146.427L524.817 146.11L525.603 145.844C527.447 145.209 528.421 143.198 527.754 141.36C527.108 139.573 525.166 138.641 523.364 139.245L521.624 139.844L520.687 140.167L519.749 140.495L518.817 140.823L517.884 141.156L516.957 141.49L516.025 141.828L515.103 142.167L514.176 142.511L512.332 143.198L511.416 143.547L510.134 144.037ZM543.489 133.005C540.91 133.745 540.093 136.953 541.999 138.844C542.91 139.719 544.155 140.047 545.379 139.709L546.509 139.391L547.473 139.12C548.442 138.854 549.405 138.589 550.374 138.328C551.348 138.068 552.322 137.808 553.296 137.552C555.108 137.078 556.921 136.61 558.739 136.156C561.442 135.474 562.296 132.068 560.228 130.188C559.358 129.412 558.187 129.115 557.051 129.396C554.546 130.026 552.046 130.672 549.546 131.339L547.577 131.87L545.614 132.412C544.905 132.61 544.197 132.802 543.489 133.005ZM577.546 124.698C575.035 125.235 573.937 128.183 575.499 130.224C576.322 131.292 577.655 131.787 578.973 131.516C583.494 130.563 588.02 129.672 592.562 128.818C595.119 128.328 596.265 125.344 594.681 123.271C593.869 122.224 592.588 121.735 591.285 121.969C586.697 122.828 582.114 123.735 577.546 124.698ZM611.963 118.396C609.582 118.787 608.301 121.391 609.457 123.516C610.181 124.808 611.593 125.5 613.056 125.276C617.624 124.547 622.202 123.86 626.775 123.198C629.541 122.792 630.728 119.5 628.864 117.417C628.072 116.558 626.952 116.141 625.791 116.308C621.176 116.969 616.567 117.662 611.963 118.396ZM646.562 113.521C643.905 113.854 642.608 116.927 644.213 119.073C644.968 120.073 646.181 120.584 647.426 120.433C652.02 119.854 656.619 119.308 661.218 118.776C663.692 118.49 665.067 115.802 663.869 113.62C663.166 112.386 661.838 111.698 660.426 111.854C655.801 112.391 651.181 112.943 646.562 113.521ZM681.233 109.584C679.562 109.755 678.259 111.094 678.124 112.766C677.957 114.948 679.775 116.724 681.952 116.511C686.567 116.031 691.181 115.563 695.796 115.104C698.353 114.849 699.765 112.005 698.416 109.813C697.702 108.672 696.447 108.047 695.108 108.177C690.483 108.636 685.858 109.099 681.233 109.584Z" fill="#DF3C39"/>
</g>
</svg>
