<svg width="513" height="513" viewBox="0 0 513 513" fill="none" xmlns="http://www.w3.org/2000/svg">
<g clip-path="url(#clip0_78_317)">
<path d="M512.186 14.6892C511.533 11.294 509.887 8.16888 507.457 5.70919C507.056 5.30816 506.638 4.9248 506.203 4.56019C503.136 2.00337 499.285 0.575015 495.292 0.513186H495.274C494.478 0.497083 493.681 0.537853 492.889 0.635186C492.848 0.629186 492.871 0.635186 492.866 0.635186C490.634 0.905005 488.475 1.60599 486.51 2.69919L9.79047 255.626C6.86401 257.18 4.43899 259.533 2.79758 262.412C1.15617 265.29 0.365861 268.575 0.518604 271.885C0.671346 275.195 1.76086 278.394 3.66038 281.109C5.5599 283.824 8.19133 285.943 11.2485 287.221L160.533 349.612C163.682 350.927 167.146 351.293 170.499 350.665C173.853 350.037 176.95 348.443 179.409 346.078L347.424 184.331L214.543 360.248C213.114 362.142 212.084 364.308 211.518 366.612C210.951 368.917 210.86 371.313 211.248 373.654C211.635 375.995 212.495 378.232 213.774 380.23C215.053 382.228 216.726 383.945 218.689 385.276L392.466 503.071C394.859 504.693 397.617 505.697 400.492 505.993C403.368 506.289 406.272 505.868 408.945 504.768C411.618 503.67 413.977 501.927 415.811 499.694C417.644 497.462 418.896 494.809 419.453 491.974L512.114 21.6982C512.351 20.5894 512.482 19.4607 512.505 18.3272C512.529 17.1066 512.422 15.887 512.186 14.6892ZM163.425 312.903L58.8625 269.202L392.968 91.9382L163.425 312.903ZM390.233 459.289L253.567 366.645L463.149 89.1972L390.233 459.289Z" fill="white"/>
<path d="M271.127 395.005L205.401 459.022L184.554 330.672L150.014 336.288L176.255 497.819C176.92 501.917 179.022 505.645 182.185 508.335C185.347 511.026 189.364 512.503 193.516 512.503C198.006 512.503 202.409 510.771 205.739 507.546L295.537 420.074L271.127 395.005Z" fill="white"/>
<path d="M176.676 490.256L211.674 366.045L245.351 375.534L210.352 499.744L176.676 490.256Z" fill="white"/>
</g>
<defs>
<clipPath id="clip0_78_317">
<rect width="512.01" height="512.01" fill="white" transform="translate(0.5 0.5)"/>
</clipPath>
</defs>
</svg>
