<svg width="24" height="24" viewBox="0 0 24 24" fill="none" xmlns="http://www.w3.org/2000/svg">
<path fill-rule="evenodd" clip-rule="evenodd" d="M19.3849 8.09716L12.9426 1.65484C11.8611 0.573387 10.1077 0.573386 9.0263 1.65484L2.76953 7.91161V21.3097H9.23107V15.7713C9.23107 14.7517 10.0576 13.9251 11.0772 13.9251C12.0969 13.9251 12.9234 14.7517 12.9234 15.7713V21.3097H19.3849V8.09716ZM10.3317 2.96027L4.61569 8.67632V19.4636H7.38492V15.7713C7.38492 13.7321 9.03802 12.079 11.0772 12.079C13.1164 12.079 14.7695 13.7321 14.7695 15.7713V19.4636H17.5388V8.86187L11.6372 2.96027C11.2767 2.59979 10.6922 2.59979 10.3317 2.96027Z" fill="white"/>
</svg>
